<svg width="14" height="14" viewBox="0 0 14 14" fill="none" xmlns="http://www.w3.org/2000/svg">
<path d="M13.6894 6.11822L12.7373 5.0125C12.5553 4.80255 12.4083 4.41065 12.4083 4.13072V2.94101C12.4083 2.1992 11.7992 1.59035 11.0572 1.59035H9.86711C9.5941 1.59035 9.19507 1.44339 8.98506 1.26143L7.87899 0.309673C7.39596 -0.103224 6.60491 -0.103224 6.11488 0.309673L5.01581 1.26843C4.8058 1.44339 4.40677 1.59035 4.13376 1.59035H2.92268C2.18064 1.59035 1.5716 2.1992 1.5716 2.94101V4.13772C1.5716 4.41065 1.42459 4.80255 1.24958 5.0125L0.304519 6.12522C-0.101506 6.6081 -0.101506 7.3919 0.304519 7.87478L1.24958 8.9875C1.42459 9.19745 1.5716 9.58935 1.5716 9.86228V11.059C1.5716 11.8008 2.18064 12.4096 2.92268 12.4096H4.13376C4.40677 12.4096 4.8058 12.5566 5.01581 12.7386L6.12188 13.6903C6.60491 14.1032 7.39596 14.1032 7.88599 13.6903L8.99206 12.7386C9.20207 12.5566 9.5941 12.4096 9.87411 12.4096H11.0642C11.8062 12.4096 12.4153 11.8008 12.4153 11.059V9.86928C12.4153 9.59635 12.5623 9.19745 12.7443 8.9875L13.6964 7.88178C14.1024 7.3989 14.1024 6.6011 13.6894 6.11822ZM9.90911 5.67733L6.5279 9.05749C6.42946 9.15578 6.29602 9.21099 6.15688 9.21099C6.01775 9.21099 5.8843 9.15578 5.78586 9.05749L4.09175 7.36391C3.99411 7.26514 3.93935 7.13187 3.93935 6.993C3.93935 6.85414 3.99411 6.72087 4.09175 6.62209C4.29477 6.41915 4.63079 6.41915 4.8338 6.62209L6.15688 7.94476L9.16707 4.93552C9.37008 4.73257 9.7061 4.73257 9.90911 4.93552C10.1121 5.13847 10.1121 5.47438 9.90911 5.67733Z" fill="#00C0FF"/>
</svg>
