<svg width="31" height="31" viewBox="0 0 31 31" fill="none" xmlns="http://www.w3.org/2000/svg">
<path d="M23.5886 0C23.7747 0.0551458 23.9539 0.103398 24.1401 0.165437C25.4842 0.613497 26.401 1.84049 26.4079 3.2536C26.4217 7.65837 26.4079 12.0562 26.4079 16.461C26.4079 17.1228 25.9185 17.6122 25.2912 17.6053C24.6708 17.5984 24.209 17.1021 24.209 16.4265C24.209 12.139 24.209 7.85138 24.209 3.5638C24.209 2.58496 23.8161 2.19894 22.8304 2.19894C16.399 2.19894 9.9676 2.19894 3.53622 2.19894C2.59185 2.19894 2.19894 2.59185 2.19894 3.53622C2.19894 9.98828 2.19894 16.4403 2.19894 22.8993C2.19894 23.8092 2.61253 24.2159 3.52933 24.2159C7.78245 24.2159 12.0356 24.2159 16.2887 24.2159C16.4679 24.2159 16.6609 24.2159 16.8332 24.271C17.3433 24.4158 17.6604 24.9121 17.6053 25.4291C17.5501 25.9392 17.1297 26.3597 16.6058 26.4079C16.4886 26.4217 16.3783 26.4079 16.2611 26.4079C12.0218 26.4079 7.77555 26.4079 3.53622 26.4079C1.37864 26.4079 0 25.0224 0 22.8579C0 16.4472 0 10.0434 0 3.63273C0 1.67505 0.868546 0.544565 2.77108 0.0413593C2.79175 0.0413593 2.80554 0.0137864 2.81933 0C9.74012 0 16.6678 0 23.5886 0Z" fill="#868B9C"/>
<path d="M30.625 25.3523C30.3537 25.9783 29.8738 26.2218 29.1921 26.1939C28.2044 26.1592 27.2097 26.187 26.1802 26.187C26.1802 26.6739 26.1802 27.133 26.1802 27.5921C26.1802 28.1694 26.1802 28.7467 26.1802 29.3241C26.1802 30.117 25.735 30.6318 25.0603 30.6248C24.3995 30.6248 23.9613 30.1101 23.9613 29.338C23.9613 28.4129 23.9613 27.4877 23.9613 26.5626V26.18C23.7456 26.18 23.5509 26.18 23.3631 26.18C22.4727 26.18 21.5824 26.18 20.692 26.18C20.0173 26.18 19.5234 25.7001 19.5234 25.0671C19.5234 24.4341 20.0173 23.9611 20.692 23.9611C21.7632 23.9611 22.8414 23.9611 23.9404 23.9611C23.9474 23.8429 23.9613 23.7455 23.9613 23.6481C23.9613 23.0012 23.9613 22.3543 23.9613 21.7074C23.9613 20.052 24.2256 19.5303 25.0603 19.5233C25.9089 19.5233 26.1802 20.052 26.1802 21.7283C26.1802 22.4308 26.1802 23.1403 26.1802 23.8429C26.1802 23.8637 26.1802 23.8916 26.2011 23.9681C26.2985 23.9681 26.4097 23.9681 26.521 23.9681C27.4114 23.9681 28.3017 23.9959 29.1921 23.9611C29.8738 23.9333 30.3537 24.1698 30.625 24.8028V25.3592V25.3523Z" fill="#868B9C"/>
<path d="M4.21094 21.8202C4.21094 21.5566 4.21094 21.3064 4.21094 21.0631C4.21094 19.1162 4.21094 17.1761 4.21094 15.2292C4.21094 15.0061 4.27296 14.8506 4.43835 14.7019C4.81738 14.3436 5.18263 13.9718 5.55477 13.6068C6.10609 13.066 6.71943 13.0592 7.27074 13.5933C8.00123 14.3031 8.72484 15.0264 9.45533 15.7429C9.53803 15.8241 9.62073 15.8984 9.71721 15.9863C9.81369 15.8984 9.91017 15.8173 9.99286 15.7294C11.7984 13.9583 13.604 12.1804 15.4095 10.4093C16.0298 9.8009 16.6087 9.8009 17.222 10.4093C18.6899 11.8492 20.1509 13.2891 21.6118 14.7289C21.7152 14.8303 21.8117 14.9858 21.8117 15.121C21.8255 17.3113 21.8186 19.5015 21.8186 21.6918C21.8186 21.7256 21.8117 21.7593 21.8048 21.8134H4.21094V21.8202Z" fill="#868B9C"/>
<path d="M9.93971 9.95297C8.46219 9.95297 7.26675 8.64339 7.27347 7.06037C7.28018 5.47735 8.50249 4.19654 9.98 4.21094C11.4441 4.22533 12.6328 5.51333 12.6328 7.08915C12.6328 8.67217 11.4239 9.96017 9.93971 9.95297Z" fill="#868B9C"/>
</svg>
