<svg width="15" height="14" viewBox="0 0 15 14" fill="none" xmlns="http://www.w3.org/2000/svg">
<path d="M8.46113 2.79501L11.6067 5.82882C11.7392 5.95663 11.7392 6.16516 11.6067 6.29297L3.99039 13.6387L0.754155 13.9851C0.321728 14.0322 -0.0444408 13.6791 0.00438162 13.262L0.363575 10.1407L7.97988 2.79501C8.1124 2.6672 8.32861 2.6672 8.46113 2.79501ZM14.1106 2.02478L12.4088 0.383431C11.8787 -0.12781 11.0173 -0.12781 10.4838 0.383431L9.24926 1.57408C9.11675 1.7019 9.11675 1.91043 9.24926 2.03824L12.3948 5.07205C12.5273 5.19986 12.7436 5.19986 12.8761 5.07205L14.1106 3.8814C14.6407 3.36679 14.6407 2.53603 14.1106 2.02478Z" fill="#00C0FF"/>
</svg>
