<svg width="33" height="33" viewBox="0 0 33 33" fill="none" xmlns="http://www.w3.org/2000/svg">
<circle cx="16.5" cy="16.5" r="16.5" fill="white"/>
<path d="M17.4611 12.795L20.6067 15.8288C20.7392 15.9566 20.7392 16.1652 20.6067 16.293L12.9904 23.6387L9.75416 23.9851C9.32173 24.0322 8.95556 23.6791 9.00438 23.262L9.36357 20.1407L16.9799 12.795C17.1124 12.6672 17.3286 12.6672 17.4611 12.795ZM23.1106 12.0248L21.4088 10.3834C20.8787 9.87219 20.0173 9.87219 19.4838 10.3834L18.2493 11.5741C18.1167 11.7019 18.1167 11.9104 18.2493 12.0382L21.3948 15.0721C21.5273 15.1999 21.7436 15.1999 21.8761 15.0721L23.1106 13.8814C23.6407 13.3668 23.6407 12.536 23.1106 12.0248Z" fill="#00C0FF"/>
</svg>
