<svg width="21" height="22" viewBox="0 0 21 22" fill="none" xmlns="http://www.w3.org/2000/svg">
<path d="M0 11.5681C0 9.51429 0 7.46044 0 5.40659C0 3.20441 1.43769 1.74389 3.62847 1.73248C5.70514 1.73248 7.7704 1.73248 9.84707 1.73248C10.7028 1.73248 11.1935 2.16607 11.1821 2.8621C11.1707 3.53531 10.68 3.94608 9.85848 3.94608C7.83886 3.94608 5.83065 3.94608 3.81103 3.94608C2.70424 3.94608 2.23641 4.40249 2.23641 5.48646C2.23641 9.49147 2.23641 13.5079 2.23641 17.5129C2.23641 18.6996 2.65859 19.1103 3.85667 19.1103C7.85027 19.1103 11.8439 19.1103 15.8261 19.1103C16.9443 19.1103 17.3893 18.6767 17.3893 17.5699C17.3893 15.5161 17.3893 13.4622 17.3893 11.4084C17.3893 10.8835 17.5832 10.4728 18.0739 10.256C18.5075 10.0734 18.9639 10.1076 19.272 10.4842C19.4545 10.7124 19.6029 11.0547 19.6143 11.3513C19.6371 13.5535 19.6599 15.7557 19.6143 17.9693C19.58 19.8862 18.0625 21.3239 16.0885 21.3467C14.5709 21.3696 13.0419 21.3467 11.5244 21.3467C8.95707 21.3467 6.38976 21.3467 3.82244 21.3467C1.41487 21.3696 0 19.9547 0 17.5471C0 15.5503 0 13.5535 0 11.5567V11.5681Z" fill="#051E5B"/>
<path d="M18.5645 3.87823C18.1766 4.31182 17.8 4.75682 17.3893 5.179C15.6891 6.89054 13.9776 8.59067 12.2775 10.3022C12.209 10.3707 12.1405 10.4391 12.0721 10.5076C11.5358 11.0097 10.8512 11.0439 10.3948 10.5761C9.94977 10.1082 9.96118 9.48067 10.4746 8.9558C11.319 8.08862 12.1862 7.23285 13.0534 6.37708C14.2514 5.179 15.4495 3.98092 16.6362 2.79425C16.7731 2.65733 16.91 2.50899 17.1725 2.23515C16.1455 2.23515 15.3012 2.23515 14.4568 2.23515C14.2286 2.23515 14.0004 2.23515 13.7722 2.23515C13.0648 2.21233 12.5855 1.7445 12.5855 1.10553C12.5855 0.489374 13.042 0.032963 13.7266 0.0101425C14.3541 -0.0126781 14.9817 0.0101425 15.6093 0.0101425C16.6362 0.0101425 17.6631 0.0101425 18.69 0.0101425C20.1049 0.032963 20.9949 0.934375 20.9949 2.34925C20.9949 3.98092 21.0063 5.624 20.9949 7.25567C20.9949 8.16849 20.1391 8.70477 19.3747 8.30541C18.9639 8.08862 18.7813 7.7349 18.7813 7.27849C18.7813 6.34285 18.7813 5.41861 18.7813 4.48297C18.7813 4.33464 18.7585 4.19771 18.7585 4.04938L18.5645 3.92387V3.87823Z" fill="#051E5B"/>
</svg>
