<svg width="16" height="16" viewBox="0 0 16 16" fill="none" xmlns="http://www.w3.org/2000/svg">
<path d="M8.00353 0C10.3408 0 12.678 0 15.019 0C15.1015 0 15.1803 0 15.2629 0.00375184C15.5442 0.0225111 15.7693 0.127563 15.8931 0.397695C16.0394 0.709098 16.0544 1.013 15.8181 1.29063C15.7656 1.35066 15.7093 1.41069 15.6493 1.46697C13.9461 3.17031 12.2466 4.87364 10.5396 6.56948C10.4308 6.67453 10.3933 6.78333 10.3933 6.92965C10.397 8.8506 10.3933 10.7678 10.4008 12.6887C10.4008 13.0452 10.277 13.3003 9.98812 13.5141C8.9902 14.2457 8.00728 14.9961 7.01686 15.7352C6.93808 15.7953 6.85179 15.844 6.76551 15.8966C6.169 16.238 5.58751 15.6677 5.59126 15.1537C5.60627 12.4224 5.59876 9.69101 5.60251 6.95592C5.60251 6.78708 5.5575 6.66703 5.43744 6.54697C3.71546 4.83988 2.00474 3.12153 0.286511 1.41069C0.00514165 1.1293 -0.0773933 0.829157 0.0764219 0.457725C0.18897 0.18384 0.391555 0.048774 0.669173 0.0112555C0.770466 0 0.871759 0 0.9693 0C3.31404 0 5.65879 0 8.00353 0ZM13.2595 1.61329H2.74005C2.81133 1.68458 2.85635 1.7371 2.90512 1.78588C4.21067 3.09152 5.50872 4.40091 6.82178 5.6953C7.0994 5.96918 7.21195 6.25807 7.2082 6.64076C7.19694 8.87686 7.20444 11.1167 7.20444 13.3566V13.6042C7.71091 13.2252 8.1686 12.8726 8.6413 12.5312C8.76135 12.4449 8.80262 12.3548 8.80262 12.2085C8.79887 10.3213 8.80262 8.43414 8.79512 6.54321C8.79512 6.22806 8.89266 5.98419 9.11775 5.75908C10.4496 4.43843 11.7739 3.11028 13.0982 1.78213C13.147 1.73335 13.192 1.68458 13.2595 1.61329Z" fill="#051E5B"/>
</svg>
