<svg width="22" height="22" viewBox="0 0 22 22" fill="none" xmlns="http://www.w3.org/2000/svg">
<path d="M11 21C16.523 21 21 16.523 21 11C21 5.477 16.523 1 11 1C5.477 1 1 5.477 1 11C1 16.523 5.477 21 11 21Z" stroke="#051E5B" stroke-width="1.5" stroke-linecap="round" stroke-linejoin="round"/>
<path d="M7.00001 2H8.00001C6.05004 7.84157 6.05004 14.1584 8.00001 20H7.00001M14 2C15.95 7.84157 15.95 14.1584 14 20" stroke="#051E5B" stroke-width="1.5" stroke-linecap="round" stroke-linejoin="round"/>
<path d="M2 14.9996V13.9996C7.84157 15.9496 14.1584 15.9496 20 13.9996V14.9996M2 7.99959C7.84157 6.04962 14.1584 6.04962 20 7.99959" stroke="#051E5B" stroke-width="1.5" stroke-linecap="round" stroke-linejoin="round"/>
</svg>
