<svg width="22" height="26" viewBox="0 0 22 26" fill="none" xmlns="http://www.w3.org/2000/svg">
<path d="M0 20.1869C0.124402 19.5119 0.205263 18.8306 0.373205 18.1681C0.845932 16.3057 1.77895 14.6869 3.11626 13.3119C3.57655 12.8369 4.1799 12.7932 4.60287 13.1994C5.03205 13.6119 5.01339 14.2119 4.5531 14.6932C2.93588 16.3744 2.08995 18.3869 1.98421 20.7244C1.96555 21.1994 2.13971 21.5494 2.46938 21.8494C3.0665 22.3869 3.77559 22.7244 4.522 22.9931C6.98516 23.8744 9.52918 24.0869 12.1167 23.9681C13.9019 23.8869 15.6684 23.6306 17.3478 22.9869C17.9512 22.7556 18.5296 22.4369 19.0895 22.1056C19.7301 21.7306 19.9665 21.1556 19.8918 20.3869C19.6866 18.1681 18.8593 16.2494 17.2981 14.6557C17.0493 14.4057 16.9 14.1182 16.9435 13.7619C16.9933 13.3557 17.2172 13.0682 17.6028 12.9307C18.0072 12.7869 18.3555 12.8994 18.654 13.1932C19.7052 14.2369 20.5138 15.4494 21.0737 16.8306C21.478 17.8306 21.7392 18.8619 21.8325 19.9431C21.8387 20.0244 21.8698 20.1056 21.8823 20.1869V21.3744C21.6646 22.3994 21.0612 23.1494 20.2277 23.7244C19.8483 23.9869 19.444 24.2306 19.0272 24.4306C17.4162 25.2056 15.6933 25.5869 13.933 25.8119C13.3296 25.8869 12.7201 25.9369 12.1167 25.9994H9.7531C9.33013 25.9556 8.91339 25.9181 8.49042 25.8744C6.64305 25.6744 4.82679 25.3306 3.12248 24.5619C1.69186 23.9056 0.391866 23.0869 0 21.3744V20.1869Z" fill="#707893"/>
<path d="M11.6315 0C12.1229 0.11875 12.6205 0.2 13.0995 0.35625C16.1162 1.31875 18.1066 4.26874 17.9014 7.44999C17.6899 10.6562 15.3201 13.3312 12.1789 13.8875C7.73776 14.675 3.75691 11.1375 3.98705 6.60624C4.15499 3.275 6.77365 0.456249 10.0579 0.0562499C10.1263 0.0499999 10.1947 0.01875 10.2631 0C10.7172 0 11.1775 0 11.6315 0ZM5.97126 6.97499C5.97126 9.73749 8.18561 11.9937 10.9038 12C13.6842 12 15.9172 9.77499 15.9172 6.99374C15.9172 4.23749 13.6842 2 10.9224 2C8.21049 2 5.97126 4.24999 5.97126 6.97499Z" fill="#707893"/>
</svg>
