<svg width="18" height="22" viewBox="0 0 18 22" fill="none" xmlns="http://www.w3.org/2000/svg">
<path d="M8.61562 21.2689C8.20836 21.1415 7.78011 21.0605 7.40225 20.8829C6.52476 20.4661 5.98736 19.783 5.73545 18.9069C5.72705 18.8838 5.73125 18.8568 5.72705 18.8182H12.2725C12.2011 19.1887 12.0458 19.5283 11.8233 19.8409C11.2649 20.6244 10.4839 21.0952 9.47211 21.238C9.43852 21.2418 9.40913 21.2611 9.37554 21.2727H8.61981L8.61562 21.2689Z" fill="#00C0FF"/>
<path d="M8.99626 18C6.55583 18 4.11539 18 1.67072 18C0.833275 18 0.198845 17.5225 0.0381231 16.7535C-0.0929922 16.1197 0.118484 15.5915 0.60488 15.1732C1.19701 14.662 1.67072 14.0577 2.03023 13.3606C2.49125 12.469 2.6985 11.5183 2.70273 10.5169C2.70273 9.6507 2.69427 8.78873 2.70696 7.92253C2.76194 4.96479 4.9909 2.38732 7.90928 1.90141C8.05731 1.87606 8.11229 1.82958 8.10806 1.67746C8.09538 1.41127 8.0996 1.14507 8.10806 0.874648C8.12498 0.380282 8.5141 0 9.00049 0C9.49112 0 9.88024 0.376056 9.89715 0.874648C9.90561 1.1493 9.90561 1.42394 9.89715 1.69859C9.89715 1.82958 9.93522 1.87606 10.0663 1.90141C12.7182 2.45493 14.4227 4.03521 15.1206 6.6507C15.256 7.15352 15.2771 7.69014 15.294 8.21408C15.3279 9.16901 15.2771 10.1282 15.3363 11.0789C15.4378 12.6803 16.1272 14.0197 17.3157 15.093C17.6668 15.4099 17.9459 15.7563 17.9925 16.2423C18.0813 17.231 17.375 17.9915 16.3599 17.9958C15.0952 18 13.8264 17.9958 12.5618 17.9958C11.3733 17.9958 10.1848 17.9958 8.99626 17.9958V18Z" fill="#00C0FF"/>
</svg>
