<svg width="19" height="19" viewBox="0 0 19 19" fill="none" xmlns="http://www.w3.org/2000/svg">
<path d="M9.70592 18.84C7.87692 18.84 6.35833 18.4628 4.94003 17.6892C3.23042 16.7532 1.92672 15.4208 1.02894 13.6921C0.47021 12.6081 0.150255 11.4572 0.0404196 10.2442C-0.102844 8.69699 0.135928 7.20228 0.737634 5.77442C1.30591 4.43252 2.15117 3.28164 3.25429 2.32655C4.37175 1.35714 5.65157 0.688575 7.07942 0.306539C7.70023 0.139399 8.33059 0.0534408 8.9705 0.0152373C10.5464 -0.0707207 12.0554 0.206255 13.4881 0.865266C15.0067 1.56248 16.2531 2.59398 17.232 3.9502C17.9436 4.93394 18.445 6.01319 18.7315 7.18795C18.9942 8.28153 19.0706 9.38943 18.9321 10.5117C18.8079 11.5097 18.55 12.4648 18.125 13.3769C17.5567 14.5851 16.7736 15.6309 15.766 16.5096C14.5052 17.6032 13.0535 18.3243 11.4155 18.6586C10.7804 18.7875 10.1405 18.8639 9.70592 18.84ZM9.5149 0.769757C4.70125 0.769757 0.79494 4.59966 0.775838 9.37511C0.751961 14.2461 4.69648 18.0378 9.41939 18.076C14.2951 18.1189 18.2301 14.2413 18.2349 9.43241C18.2396 4.60921 14.3047 0.779308 9.5149 0.769757Z" fill="#3FB8E8"/>
<path d="M9.51493 0.769775C14.3047 0.779326 18.2397 4.60923 18.2349 9.4372C18.2301 14.2461 14.2904 18.1237 9.41942 18.0808C4.6965 18.0378 0.751987 14.2461 0.775865 9.3799C0.794966 4.59968 4.70128 0.769775 9.51493 0.769775ZM4.82544 11.3187C4.82544 12.0971 5.29343 12.6224 5.90947 12.7036C6.29628 12.7561 6.62578 12.6176 6.93141 12.4123C7.14153 12.2738 7.36598 12.207 7.60952 12.269C8.32584 12.4553 9.04216 12.6463 9.7537 12.8421C9.96382 12.8994 10.131 13.0236 10.2408 13.2289C10.322 13.3817 10.4175 13.5345 10.5178 13.6778C11.0383 14.3846 12.1796 14.2986 12.5903 13.5202C12.8434 13.0522 12.7957 12.5985 12.5044 12.1688C12.299 11.8679 12.2465 11.5623 12.3468 11.2089C12.5378 10.5547 12.7097 9.89087 12.8912 9.23186C12.9437 9.04084 13.0679 8.90236 13.2302 8.80207C13.3496 8.73044 13.469 8.66358 13.5884 8.59195C14.0564 8.32453 14.2808 7.79923 14.1758 7.23573C14.0898 6.77251 13.6409 6.37615 13.1347 6.30451C12.7957 6.25676 12.4805 6.32839 12.2083 6.52418C11.8835 6.75341 11.5493 6.77728 11.172 6.66745C10.6372 6.50508 10.0975 6.35227 9.55313 6.23766C9.13767 6.14692 8.86069 5.94636 8.66012 5.5691C8.30674 4.90053 7.62863 4.67131 6.98872 4.96261C6.30583 5.27302 6.06228 6.12305 6.49207 6.78206C6.71174 7.12111 6.79292 7.44585 6.66876 7.84221C6.4873 8.41526 6.33926 8.99786 6.19599 9.58524C6.11481 9.91475 5.94767 10.1535 5.63727 10.292C5.56563 10.3254 5.494 10.3732 5.42715 10.4162C5.03556 10.6597 4.83499 11.0131 4.82544 11.3187ZM12.2131 4.10303C12.2131 3.40582 11.6591 2.85664 10.9571 2.85664C10.2742 2.86142 9.72505 3.42015 9.72982 4.11259C9.72982 4.80502 10.279 5.34465 10.9762 5.33987C11.683 5.33987 12.2131 4.80503 12.2131 4.10303ZM13.6982 10.9462C13.6982 11.6244 14.2617 12.1879 14.9446 12.1879C15.6227 12.1879 16.1958 11.6291 16.2053 10.951C16.2149 10.2681 15.6323 9.69508 14.9446 9.69985C14.2522 9.70941 13.6982 10.2634 13.6982 10.9462ZM4.07092 9.29394C4.76814 9.29872 5.32209 8.76387 5.33164 8.07143C5.34119 7.37899 4.79679 6.81549 4.1139 6.81071C3.41191 6.80594 2.84841 7.34556 2.84363 8.0189C2.82931 8.73044 3.36893 9.28917 4.07092 9.29394ZM8.03931 16.1276C8.75563 16.1372 9.30003 15.6071 9.30958 14.9051C9.31913 14.2318 8.76518 13.6682 8.08707 13.6587C7.38508 13.6491 6.81203 14.1935 6.80247 14.8812C6.79292 15.5593 7.34687 16.1181 8.03931 16.1276Z" fill="#151549"/>
<path d="M4.82544 11.3187C4.83499 11.0179 5.03556 10.6645 5.42715 10.4162C5.494 10.3732 5.56563 10.3255 5.63726 10.292C5.94767 10.1535 6.11481 9.90999 6.19599 9.58526C6.33926 9.00265 6.48729 8.41527 6.66876 7.84222C6.7977 7.44108 6.71174 7.11635 6.49207 6.78207C6.06228 6.12306 6.30583 5.27303 6.98872 4.96263C7.62862 4.67133 8.30674 4.90532 8.66012 5.56911C8.86069 5.94637 9.13766 6.15171 9.55313 6.23767C10.0975 6.35706 10.6372 6.5051 11.172 6.66746C11.5493 6.78207 11.8835 6.75819 12.2083 6.5242C12.4853 6.3284 12.7957 6.25677 13.1347 6.30453C13.6409 6.37616 14.0898 6.77252 14.1758 7.23574C14.2808 7.79924 14.0564 8.32454 13.5884 8.59196C13.469 8.65882 13.3496 8.73045 13.2302 8.80208C13.0631 8.90237 12.9437 9.04086 12.8912 9.23187C12.7097 9.89089 12.5378 10.5499 12.3468 11.2089C12.2417 11.5623 12.299 11.8679 12.5044 12.1688C12.7957 12.5938 12.8434 13.0475 12.5903 13.5202C12.1748 14.2938 11.0383 14.3846 10.5178 13.6778C10.4127 13.5393 10.322 13.3865 10.2408 13.2289C10.131 13.0284 9.96382 12.8994 9.7537 12.8421C9.04216 12.6463 8.32584 12.4553 7.60952 12.2691C7.3612 12.2022 7.14153 12.2738 6.93141 12.4123C6.62101 12.6177 6.29628 12.7562 5.90947 12.7036C5.29343 12.6177 4.82544 12.0971 4.82544 11.3187ZM6.91231 10.015C6.94574 10.6884 7.25136 11.2328 7.89605 11.5289C8.4309 11.7772 9.01828 11.8775 9.59133 12.0207C10.5751 12.2643 11.5015 11.6721 11.7307 10.6836C11.8167 10.3111 11.9122 9.93864 12.0268 9.57571C12.3038 8.67315 11.9122 7.77059 11.0383 7.42198C10.4796 7.19754 9.89219 7.05905 9.30003 6.95399C8.52163 6.82028 7.83874 7.17843 7.47104 7.88042C7.3421 8.1192 7.28957 8.38662 7.22749 8.64927C7.11765 9.09339 6.93619 9.5184 6.91231 10.015Z" fill="#F7F9FA"/>
<path d="M12.213 4.10296C12.213 4.80495 11.6781 5.33502 10.9761 5.3398C10.2741 5.34457 9.72974 4.80495 9.72974 4.11251C9.72974 3.41529 10.2741 2.86134 10.9618 2.85657C11.659 2.85657 12.213 3.40574 12.213 4.10296Z" fill="#3CB6E8"/>
<path d="M13.6981 10.9462C13.6981 10.2633 14.2521 9.70939 14.9445 9.70462C15.6369 9.69984 16.2148 10.2729 16.2052 10.9558C16.1957 11.6291 15.6226 12.1926 14.9445 12.1926C14.2616 12.1878 13.6981 11.6243 13.6981 10.9462Z" fill="#3CB6E8"/>
<path d="M4.07084 9.29389C3.37363 9.28911 2.834 8.73038 2.83878 8.02362C2.84355 7.34551 3.41183 6.80588 4.10904 6.81543C4.79671 6.82021 5.34111 7.38371 5.32678 8.07615C5.31723 8.76381 4.76328 9.30344 4.07084 9.29389Z" fill="#3DB7E8"/>
<path d="M8.03933 16.1276C7.34689 16.1228 6.79294 15.5593 6.80249 14.8812C6.81204 14.1935 7.38987 13.6491 8.08708 13.6587C8.7652 13.6682 9.31437 14.2317 9.3096 14.9051C9.30005 15.6071 8.75565 16.1324 8.03933 16.1276Z" fill="#3CB7E8"/>
<path d="M6.91223 10.015C6.93133 9.51834 7.11758 9.09332 7.21786 8.64921C7.27994 8.38656 7.33247 8.11913 7.46141 7.88036C7.83389 7.18314 8.512 6.82021 9.2904 6.95392C9.88256 7.05898 10.4699 7.19747 11.0287 7.42192C11.9026 7.77052 12.2942 8.67308 12.0172 9.57564C11.9073 9.94335 11.8071 10.3111 11.7211 10.6835C11.4919 11.6721 10.5654 12.2642 9.5817 12.0207C9.00865 11.8822 8.42127 11.7771 7.88642 11.5288C7.25129 11.2327 6.94566 10.6883 6.91223 10.015ZM9.51962 10.7313C10.2264 10.7313 10.7612 10.1917 10.7612 9.49446C10.7612 8.8068 10.2025 8.25284 9.51485 8.24807C8.84629 8.24329 8.25413 8.83545 8.26368 9.49923C8.26846 10.1917 8.82241 10.7313 9.51962 10.7313Z" fill="#17174A"/>
<path d="M9.51964 10.7313C8.82243 10.7313 8.26848 10.1917 8.2637 9.49921C8.25893 8.83543 8.84631 8.24805 9.51487 8.24805C10.2025 8.25282 10.7613 8.80677 10.7613 9.49444C10.7613 10.1964 10.2216 10.7313 9.51964 10.7313Z" fill="#3CB7E8"/>
</svg>
