<svg width="19" height="15" viewBox="0 0 19 15" fill="none" xmlns="http://www.w3.org/2000/svg">
<path d="M16.4532 14.9921H0.759246C0.310951 14.8439 0.191646 14.6523 0.282028 14.2184C0.889397 11.2611 1.49677 8.30381 2.10052 5.35012C2.18729 4.93436 2.27405 4.52222 2.36082 4.10284H2.57412C7.46199 4.10284 12.3499 4.10284 17.2377 4.10284C17.2847 4.10284 17.3353 4.10284 17.3823 4.10284C18.0765 4.12815 18.5465 4.68491 18.4633 5.37543C18.4055 5.85987 18.3512 6.34071 18.297 6.82516C18.0403 9.15702 17.78 11.4925 17.527 13.828C17.4836 14.222 17.3751 14.5799 17.0172 14.7933C16.8473 14.8945 16.6412 14.9306 16.4496 14.9993L16.4532 14.9921Z" fill="#00C0FF"/>
<path d="M0 0.925514C0.0759211 0.68329 0.169919 0.455526 0.368759 0.281992C0.596523 0.0795364 0.867669 0 1.16412 0C2.06433 0 2.96815 0 3.86836 0C4.28773 0 4.49742 0.213302 4.50103 0.636291C4.50103 0.715827 4.50103 0.791748 4.50826 0.871285C4.52634 1.0882 4.67457 1.26897 4.88787 1.3232C4.98548 1.3485 5.09033 1.35212 5.19155 1.35212C8.28263 1.35212 11.3701 1.35935 14.4612 1.35212C15.1191 1.35212 15.5385 1.75341 15.618 2.20533C15.665 2.46924 15.6542 2.74039 15.6723 3.03323H15.3975C10.9616 3.03323 6.5256 3.03323 2.08964 3.03323C1.6305 3.03323 1.46058 3.17422 1.37019 3.61529C0.925514 5.76277 0.480833 7.91387 0.0397682 10.065C0.0325376 10.0975 0.0144612 10.13 0 10.159C0 7.08235 0 4.00574 0 0.925514Z" fill="#00C0FF"/>
</svg>
