<svg width="18" height="18" viewBox="0 0 18 18" fill="none" xmlns="http://www.w3.org/2000/svg">
<path d="M8.70005 0H9.40005C9.60005 0 9.90005 0 10.1001 0.1H10.2001C14.1001 0.7 17.1001 3.5 17.8001 7.5C17.8001 7.6 17.8001 7.8 17.8001 7.9C18.0001 8.1 18.0001 8.4 18.0001 8.7V9.2C18.0001 9.6 18.0001 9.9 17.9001 10.3C17.9001 10.4 17.9001 10.5 17.9001 10.6C17.2001 14.1 15.2001 16.5 11.8001 17.6C8.40005 18.7 5.30005 17.9 2.70005 15.4C0.200053 12.9 -0.599947 9.8 0.500053 6.4C1.60005 3 4.00005 1 7.40005 0.3C7.50005 0.3 7.70005 0.3 7.80005 0.2C8.10005 0 8.40005 0 8.70005 0ZM9.00005 2.8C8.90005 2.8 8.90005 2.9 8.80005 2.9C7.70005 4.1 6.50005 5.2 5.40005 6.4C5.20005 6.6 5.30005 6.6 5.40005 6.8C5.70005 7.1 6.10005 7.4 6.40005 7.8C6.50005 8 6.60005 8 6.80005 7.7C7.40005 7 8.10005 6.4 8.70005 5.7C8.90005 5.5 9.00005 5.5 9.20005 5.7C9.80005 6.4 10.5001 7 11.2001 7.7C11.4001 7.9 11.5001 7.9 11.7001 7.7C12.0001 7.4 12.3001 7.1 12.6001 6.8C12.8001 6.6 12.8001 6.5 12.6001 6.3C11.5001 5.2 10.4001 4.1 9.20005 3C9.20005 2.9 9.10005 2.8 9.00005 2.8ZM12.8001 11.4C12.7001 11.3 12.7001 11.2 12.6001 11.2C12.3001 10.9 11.9001 10.6 11.6001 10.2C11.4001 10 11.3001 10 11.2001 10.2C10.6001 10.9 9.90005 11.5 9.30005 12.2C9.10005 12.4 9.00005 12.4 8.80005 12.2C8.20005 11.5 7.50005 10.9 6.90005 10.2C6.60005 10 6.50005 10 6.30005 10.3C6.00005 10.6 5.80005 10.9 5.50005 11.1C5.30005 11.3 5.20005 11.4 5.40005 11.6C6.50005 12.7 7.70005 13.9 8.80005 15C9.00005 15.2 9.10005 15.2 9.20005 15C10.3001 13.9 11.5001 12.7 12.6001 11.6C12.7001 11.5 12.8001 11.5 12.8001 11.4ZM10.4001 9C10.3001 8.9 10.3001 8.9 10.2001 8.8C9.90005 8.6 9.50005 8.3 9.30005 7.9C9.10005 7.4 9.00005 7.6 8.80005 7.7C8.50005 8.1 8.10005 8.4 7.80005 8.8C7.60005 8.9 7.60005 9 7.80005 9.2C8.20005 9.5 8.50005 9.9 8.90005 10.3C9.00005 10.5 9.10005 10.4 9.40005 10C9.60005 9.7 9.90005 9.4 10.2001 9.2C10.3001 9.2 10.4001 9.1 10.4001 9ZM4.20005 7.6C4.10005 7.6 4.10005 7.7 4.00005 7.7C3.80005 8.1 3.50005 8.5 3.20005 8.7C2.70005 8.9 2.80005 9 2.90005 9.1C3.30005 9.5 3.60005 9.9 4.00005 10.2C4.20005 10.4 4.30005 10.3 4.40005 10.2C4.70005 9.8 5.10005 9.5 5.40005 9.2C5.50005 9.1 5.50005 8.9 5.40005 8.8C5.10005 8.5 4.70005 8.1 4.30005 7.7C4.30005 7.7 4.20005 7.7 4.20005 7.6ZM15.2001 9C15.2001 8.9 15.2001 8.9 15.2001 9C14.7001 8.5 14.3001 8.1 14.0001 7.7C13.9001 7.6 13.8001 7.7 13.7001 7.8C13.3001 8.2 13.0001 8.5 12.6001 8.9C12.5001 9 12.5001 9 12.7001 9.2C13.0001 9.5 13.4001 9.8 13.6001 10.1C13.8001 10.3 13.9001 10.3 14.0001 10.2C14.3001 9.8 14.7001 9.5 15.0001 9.2C15.1001 9.1 15.2001 9.1 15.2001 9Z" fill="#EFB80C"/>
</svg>
